<?xml version="1.0" standalone="no"?>
<!DOCTYPE svg PUBLIC "-//W3C//DTD SVG 20010904//EN"
 "http://www.w3.org/TR/2001/REC-SVG-20010904/DTD/svg10.dtd">
<svg version="1.0" xmlns="http://www.w3.org/2000/svg"
 width="700.000000pt" height="700.000000pt" viewBox="0 0 700.000000 700.000000"
 preserveAspectRatio="xMidYMid meet">
<metadata>
Created by potrace 1.14, written by Peter Selinger 2001-2017
</metadata>
<g transform="translate(0.000000,700.000000) scale(0.100000,-0.100000)"
fill="#000000" stroke="none">
<path d="M442 6791 c-133 -46 -234 -162 -256 -293 -3 -18 -6 -1372 -6 -3008
-1 -3230 -4 -3015 53 -3112 39 -66 96 -118 167 -152 l65 -31 3025 0 3025 0 67
33 c82 40 139 98 181 182 l32 65 3 2985 c2 2191 0 3001 -8 3045 -23 117 -104
220 -218 273 l-57 27 -3010 2 c-2888 2 -3012 2 -3063 -16z m5297 -767 c109
-28 205 -114 252 -224 l24 -55 0 -2245 0 -2245 -26 -56 c-47 -100 -131 -176
-234 -211 -46 -15 -208 -17 -2285 -15 l-2235 2 -67 33 c-83 41 -157 119 -190
200 l-23 57 0 2245 0 2245 28 55 c54 109 125 172 232 208 57 20 95 20 2264 20
1885 0 2213 -2 2260 -14z"/>
<path d="M1520 3504 l0 -1974 519 0 519 0 -1 600 c-1 330 0 601 3 601 3 1 160
3 350 4 413 2 472 8 630 58 243 77 484 259 630 477 173 258 260 550 255 855
-2 83 -6 161 -9 175 -3 13 -8 42 -11 65 -4 22 -22 87 -41 144 -166 499 -548
856 -1019 952 -44 9 -293 13 -942 14 l-883 2 0 -1973z m1655 997 c131 -58 196
-187 197 -390 1 -187 -29 -281 -112 -358 -72 -68 -74 -68 -402 -69 -164 0
-298 2 -299 5 -5 31 -3 810 2 821 6 13 46 15 286 14 264 -1 280 -2 328 -23z"/>
<path d="M3028 2268 c0 -2 -2 -170 -3 -375 l-1 -372 1218 0 1218 -1 0 375 0
375 -1215 0 c-668 0 -1216 -1 -1217 -2z"/>
</g>
</svg>
