<!--?xml version="1.0" encoding="utf-8"?-->
<!-- DSearch Icon (Fixed)  -->
<svg version="1.1" id="Layer_1" xmlns="http://www.w3.org/2000/svg" xmlns:xlink="http://www.w3.org/1999/xlink" x="0px" y="0px" viewBox="0 0 359.8 360.6" style="enable-background:new 0 0 359.8 360.6;" xml:space="preserve">
<style type="text/css">
	.st0{fill:#3591FC;}
</style>
<path class="st0" d="M78.1,283.1V74.3h70.5c15.1,0,28.5,2.7,40,8.2s21.2,12.9,28.9,22.4c7.7,9.4,13.6,20.4,17.6,33.1
	c4,12.6,5.9,26.1,5.9,40.4c0,15.9-2.2,30.3-6.6,43.1c-4.4,12.8-10.6,23.8-18.7,32.9c-8.1,9.1-17.8,16.2-29.2,21.2s-24,7.5-38,7.5
	H78.1z M189.9,178.4c0-8-0.9-15.4-2.8-22.1c-1.9-6.7-4.6-12.4-8.1-17.1c-3.5-4.7-7.9-8.4-13-11c-5.2-2.6-10.9-4-17.3-4h-20.1V233
	h20.1c6.5,0,12.4-1.4,17.6-4.1c5.2-2.7,9.5-6.6,13-11.5s6.2-10.7,8-17.4C189,193.5,189.9,186.3,189.9,178.4z"></path>
<path class="st0" d="M242.2,244.1c-4.1,7.7-8.8,14.8-14.4,21.1c-6.4,7.2-13.7,13.4-21.9,18.4h82.3v-39.5H242.2z"></path>
<path class="st0" d="M78.1,283.1V74.3h70.5c15.1,0,28.5,2.7,40,8.2s21.2,12.9,28.9,22.4c7.7,9.4,13.6,20.4,17.6,33.1
	c4,12.6,5.9,26.1,5.9,40.4c0,15.9-2.2,30.3-6.6,43.1c-4.4,12.8-10.6,23.8-18.7,32.9c-8.1,9.1-17.8,16.2-29.2,21.2s-24,7.5-38,7.5
	H78.1z M189.9,178.4c0-8-0.9-15.4-2.8-22.1c-1.9-6.7-4.6-12.4-8.1-17.1c-3.5-4.7-7.9-8.4-13-11c-5.2-2.6-10.9-4-17.3-4h-20.1V233
	h20.1c6.5,0,12.4-1.4,17.6-4.1c5.2-2.7,9.5-6.6,13-11.5s6.2-10.7,8-17.4C189,193.5,189.9,186.3,189.9,178.4z"></path>
<path class="st0" d="M11.5,30.3v296.9c0,10.6,8.6,19.3,19.3,19.3h296.9c10.6,0,19.3-8.6,19.3-19.3V30.3c0-10.6-8.6-19.3-19.3-19.3
	H30.8C20.1,11,11.5,19.6,11.5,30.3z M288.2,306.9H69.9c-10.6,0-19.3-8.6-19.3-19.3V69.4c0-10.6,8.6-19.3,19.3-19.3h218.3
	c10.6,0,19.3,8.6,19.3,19.3v218.3C307.4,298.3,298.8,306.9,288.2,306.9z"></path>
</svg>