<?xml version="1.0" encoding="UTF-8" standalone="no"?>
<svg
   id="Layer_1"
   data-name="Layer 1"
   viewBox="0 0 295.03001 48.021238"
   version="1.1"
   width="295.03"
   height="48.02124"
   xmlns:xlink="http://www.w3.org/1999/xlink"
   xmlns="http://www.w3.org/2000/svg"
   xmlns:svg="http://www.w3.org/2000/svg"
   xmlns:rdf="http://www.w3.org/1999/02/22-rdf-syntax-ns#"
   xmlns:cc="http://creativecommons.org/ns#"
   xmlns:dc="http://purl.org/dc/elements/1.1/">
  <defs
     id="defs17">
    <style
       id="style9">.cls-1{fill:url(#linear-gradient)}.cls-2{fill:url(#linear-gradient-2)}.cls-3{fill:#fff}.cls-4{fill:#fff}</style>
    <linearGradient
       id="linear-gradient"
       x1="226.42999"
       y1="280.07999"
       x2="226.42999"
       y2="331.79001"
       gradientTransform="matrix(1,0,0,-1,0,612)"
       gradientUnits="userSpaceOnUse">
      <stop
         offset="0"
         stop-color="#fff"
         id="stop11" />
      <stop
         offset="1"
         stop-color="#fff"
         id="stop13" />
    </linearGradient>
    <linearGradient
       id="linear-gradient-2"
       x1="233.21001"
       y1="264.42001"
       x2="233.21001"
       y2="347.57999"
       xlink:href="#linear-gradient" />
  </defs>
  <title
     id="title19">presearch_logo</title>
  <g
     id="g4419"
     transform="translate(-113.73,-17.58)">
    <path
       class="cls-4"
       d="m 431.25,319.69 a 7.53,7.53 0 0 0 -0.81,-3.63 7.39,7.39 0 0 0 -2.46,-2.6 17,17 0 0 0 -4.15,-1.91 q -2.5,-0.81 -5.87,-1.59 -2.14,-0.52 -3.67,-1 a 11,11 0 0 1 -2.5,-1 3.67,3.67 0 0 1 -1.39,-1.36 4,4 0 0 1 -0.42,-1.95 4.61,4.61 0 0 1 2.17,-4.25 9.94,9.94 0 0 1 5.29,-1.33 16.23,16.23 0 0 1 5.45,0.94 14.59,14.59 0 0 1 4.8,2.82 l 2.6,-3.44 a 17.58,17.58 0 0 0 -5.58,-3.24 20.3,20.3 0 0 0 -7.14,-1.23 18.35,18.35 0 0 0 -5.09,0.68 12.4,12.4 0 0 0 -4.12,2 9.53,9.53 0 0 0 -2.76,3.31 9.81,9.81 0 0 0 -1,4.51 7.81,7.81 0 0 0 0.65,3.37 5.9,5.9 0 0 0 2.08,2.34 14.17,14.17 0 0 0 3.63,1.69 q 2.2,0.72 5.26,1.49 2.4,0.59 4.22,1.1 a 14.44,14.44 0 0 1 3,1.17 4.91,4.91 0 0 1 1.75,1.52 3.71,3.71 0 0 1 0.58,2.11 4.68,4.68 0 0 1 -2.17,4.12 10.4,10.4 0 0 1 -5.87,1.46 17.55,17.55 0 0 1 -6.29,-1.14 24,24 0 0 1 -6,-3.4 l -2.44,3.83 a 19.8,19.8 0 0 0 6.81,3.67 26.27,26.27 0 0 0 8,1.26 q 6.16,0 9.8,-2.79 a 9,9 0 0 0 3.63,-7.53 m 33.35,-9.54 h -23 a 12.77,12.77 0 0 1 1.14,-4.41 11.51,11.51 0 0 1 2.47,-3.47 11,11 0 0 1 3.54,-2.27 11.51,11.51 0 0 1 12.1,2.24 11.9,11.9 0 0 1 2.53,3.47 12.22,12.22 0 0 1 1.2,4.44 m 5.35,3.31 v -1.3 a 18.15,18.15 0 0 0 -1.2,-6.52 16.81,16.81 0 0 0 -3.4,-5.51 16.62,16.62 0 0 0 -12.32,-5.22 17.26,17.26 0 0 0 -7,1.39 16.94,16.94 0 0 0 -5.48,3.8 17.13,17.13 0 0 0 -3.57,5.58 18.1,18.1 0 0 0 -1.27,6.75 18.33,18.33 0 0 0 1.32,6.77 17.28,17.28 0 0 0 3.54,5.61 16.58,16.58 0 0 0 5.45,3.8 17.27,17.27 0 0 0 7,1.39 18.11,18.11 0 0 0 4.86,-0.65 17.4,17.4 0 0 0 4.25,-1.78 15.25,15.25 0 0 0 3.37,-2.69 12.47,12.47 0 0 0 2.3,-3.44 l -4.93,-1.36 a 7.15,7.15 0 0 1 -1.53,2.34 9.67,9.67 0 0 1 -2.3,1.75 13.15,13.15 0 0 1 -2.79,1.14 11.12,11.12 0 0 1 -3,0.42 10.54,10.54 0 0 1 -4.18,-0.84 11.68,11.68 0 0 1 -3.54,-2.34 11.87,11.87 0 0 1 -2.53,-3.57 13.12,13.12 0 0 1 -1.17,-4.61 h 28.09 a 7.52,7.52 0 0 0 0.1,-0.91 m 27.43,5.54 a 3.61,3.61 0 0 1 -1.23,2.53 9.35,9.35 0 0 1 -4,3 14.14,14.14 0 0 1 -5.68,1.14 8.11,8.11 0 0 1 -2.92,-0.52 7.42,7.42 0 0 1 -2.37,-1.43 6.32,6.32 0 0 1 -1.56,-2.14 6.41,6.41 0 0 1 -0.55,-2.66 5.5,5.5 0 0 1 2.69,-4.73 12.23,12.23 0 0 1 7,-1.82 23.53,23.53 0 0 1 8.63,1.62 v 5 z m 6,10.51 1.49,-0.2 v -4.93 q -1.82,-0.06 -1.82,-2.08 v -13.77 q 0,-6.49 -3.73,-10.06 -3.73,-3.57 -10.36,-3.56 a 23.43,23.43 0 0 0 -13.17,4.41 l 1.88,3.7 q 5.64,-4 10.77,-4 a 8.16,8.16 0 0 1 9,8.89 v 2.72 a 23.06,23.06 0 0 0 -4.48,-1.23 28.3,28.3 0 0 0 -5,-0.45 20.11,20.11 0 0 0 -5.74,0.78 15.2,15.2 0 0 0 -4.54,2.14 9.66,9.66 0 0 0 -3,3.28 8.76,8.76 0 0 0 -1,4.25 9.94,9.94 0 0 0 0.88,4.18 10.5,10.5 0 0 0 2.4,3.34 11.12,11.12 0 0 0 3.6,2.24 12.21,12.21 0 0 0 4.4,0.84 17.64,17.64 0 0 0 7.43,-1.59 14.65,14.65 0 0 0 5.74,-4.64 l 0.13,2.4 a 4.13,4.13 0 0 0 1.2,2.43 3.64,3.64 0 0 0 2.69,1 11.71,11.71 0 0 0 1.23,-0.07 m 19.17,-26.86 a 14.69,14.69 0 0 1 7.56,-2.2 v -5.17 a 4.16,4.16 0 0 0 -0.78,-0.07 h -1.1 a 11.44,11.44 0 0 0 -6.1,2.43 16,16 0 0 0 -4.61,5.68 v -7.85 h -5.32 v 33.86 H 518 v -20.88 a 11.26,11.26 0 0 1 4.64,-5.78 m 16.9,14.66 a 13.63,13.63 0 0 1 -0.91,-5 13.78,13.78 0 0 1 0.88,-5 12.89,12.89 0 0 1 2.37,-4 10.44,10.44 0 0 1 3.57,-2.63 10.57,10.57 0 0 1 4.41,-0.94 10.3,10.3 0 0 1 5.19,1.33 9.28,9.28 0 0 1 3.63,3.73 l 5.58,-1.75 a 14.55,14.55 0 0 0 -5.55,-6 16.42,16.42 0 0 0 -8.73,-2.24 17.2,17.2 0 0 0 -7,1.39 16.92,16.92 0 0 0 -5.42,3.76 16.58,16.58 0 0 0 -3.5,5.55 18.94,18.94 0 0 0 0,13.53 17.27,17.27 0 0 0 3.54,5.61 16.9,16.9 0 0 0 12.4,5.31 17.93,17.93 0 0 0 9,-2.4 13.63,13.63 0 0 0 3.28,-2.66 12,12 0 0 0 2.17,-3.44 l -5.58,-1.69 a 5.62,5.62 0 0 1 -1.3,2 10.1,10.1 0 0 1 -2.11,1.65 11.38,11.38 0 0 1 -2.66,1.13 10.55,10.55 0 0 1 -3,0.42 10.07,10.07 0 0 1 -4.38,-1 11.15,11.15 0 0 1 -3.57,-2.69 13.33,13.33 0 0 1 -2.43,-4.06 m 60.85,12 v -20.15 a 27.33,27.33 0 0 0 -0.55,-5.61 13,13 0 0 0 -1.72,-4.5 8.82,8.82 0 0 0 -3.31,-3 10.67,10.67 0 0 0 -5.06,-1.1 14.3,14.3 0 0 0 -7.53,2.08 14.91,14.91 0 0 0 -5.45,5.77 V 282 H 571 v 47.36 h 5.71 v -20.44 a 12.3,12.3 0 0 1 1.72,-3.57 13.29,13.29 0 0 1 2.59,-2.79 12.5,12.5 0 0 1 3.15,-1.85 9,9 0 0 1 3.37,-0.68 6.1,6.1 0 0 1 5.32,2.56 q 1.82,2.56 1.82,7.82 v 18.94 h 5.71 z"
       transform="translate(-191.63,-264.42)"
       id="path27"
       style="fill:#2d8eff;fill-opacity:1" />
    <path
       class="cls-3"
       d="m 332.58,298 a 11.6,11.6 0 0 1 -0.58,3.7 10.19,10.19 0 0 1 -1.62,3.08 7.43,7.43 0 0 1 -2.5,2.08 7.09,7.09 0 0 1 -3.28,0.74 h -13.43 v -19.12 h 13 a 7.48,7.48 0 0 1 3.21,0.71 8,8 0 0 1 2.66,2 10.36,10.36 0 0 1 2.5,6.81 m 4.93,5.51 a 15.94,15.94 0 0 0 1,-5.51 14.45,14.45 0 0 0 -1,-5.35 16.13,16.13 0 0 0 -2.89,-4.74 14.17,14.17 0 0 0 -4.41,-3.37 12.51,12.51 0 0 0 -5.61,-1.26 h -19.2 v 46.06 h 5.84 v -16.53 h 13.75 a 12.36,12.36 0 0 0 5.55,-1.23 13.42,13.42 0 0 0 4.28,-3.31 15.23,15.23 0 0 0 2.76,-4.74 m 17.68,-0.84 a 14.67,14.67 0 0 1 7.56,-2.21 v -5.19 A 4.15,4.15 0 0 0 362,295.23 h -1.1 a 11.44,11.44 0 0 0 -6.1,2.43 16,16 0 0 0 -4.61,5.68 v -7.85 h -5.32 v 33.86 h 5.71 v -20.88 a 11.25,11.25 0 0 1 4.64,-5.77 m 39,7.46 h -23 a 12.7,12.7 0 0 1 1.14,-4.41 11.45,11.45 0 0 1 2.46,-3.47 11.05,11.05 0 0 1 3.54,-2.27 11.5,11.5 0 0 1 12.1,2.24 11.89,11.89 0 0 1 2.53,3.47 12.25,12.25 0 0 1 1.2,4.44 m 5.35,3.31 v -1.3 a 18.15,18.15 0 0 0 -1.2,-6.52 16.8,16.8 0 0 0 -3.41,-5.51 16.6,16.6 0 0 0 -12.32,-5.22 17.27,17.27 0 0 0 -7,1.39 16.89,16.89 0 0 0 -9.05,9.38 18.09,18.09 0 0 0 -1.27,6.75 18.34,18.34 0 0 0 1.27,6.78 17.3,17.3 0 0 0 3.54,5.61 16.57,16.57 0 0 0 5.45,3.8 17.28,17.28 0 0 0 7,1.39 18.08,18.08 0 0 0 4.87,-0.65 17.42,17.42 0 0 0 4.25,-1.78 15.27,15.27 0 0 0 3.37,-2.69 12.47,12.47 0 0 0 2.3,-3.44 l -4.93,-1.36 a 7.11,7.11 0 0 1 -1.52,2.34 9.69,9.69 0 0 1 -2.3,1.75 13.17,13.17 0 0 1 -2.79,1.14 11.13,11.13 0 0 1 -3,0.42 10.55,10.55 0 0 1 -4.18,-0.84 11.67,11.67 0 0 1 -3.54,-2.34 11.84,11.84 0 0 1 -2.53,-3.57 13.1,13.1 0 0 1 -1.17,-4.61 h 28.09 a 7,7 0 0 0 0.1,-0.91"
       transform="translate(-191.63,-264.42)"
       id="path29"
       style="fill:#2d8eff;fill-opacity:1" />
  </g>
  <metadata
     id="metadata4399">
    <rdf:RDF>
      <cc:Work
         rdf:about="">
        <dc:title>presearch_logo</dc:title>
      </cc:Work>
    </rdf:RDF>
  </metadata>
</svg>
